<?xml version="1.0" encoding="UTF-8"?>
<svg width="63px" height="54px" viewBox="0 0 63 54" version="1.1" xmlns="http://www.w3.org/2000/svg" xmlns:xlink="http://www.w3.org/1999/xlink">
    <!-- Generator: Sketch 45.2 (43514) - http://www.bohemiancoding.com/sketch -->
    <title>e-commerce-infinite</title>
    <desc>Created with Sketch.</desc>
    <defs>
        <linearGradient x1="152.531603%" y1="50%" x2="-12.9363524%" y2="50%" id="linearGradient-1">
            <stop stop-color="#01ADFF" offset="0%"></stop>
            <stop stop-color="#8E43E6" offset="100%"></stop>
        </linearGradient>
    </defs>
    <g id="Page-1" stroke="none" stroke-width="1" fill="none" fill-rule="evenodd">
        <g id="e-commerce-infinite" fill-rule="nonzero" fill="url(#linearGradient-1)">
            <path d="M9.8,39 L10.4,39 L40.6,39 L51.4,39 C51.8,39 52.2,38.8 52.3,38.4 L62.7,12.5 C62.8,12.2 62.8,11.8 62.6,11.6 C62.4,11.3 62.1,11.2 61.8,11.2 L11.4,11.2 L11.4,10.6 C11.4,5 6.8,0.4 1.2,0.4 C0.6,0.4 0.2,0.8 0.2,1.4 C0.2,2 0.6,2.4 1.2,2.4 C5.7,2.4 9.4,6.1 9.4,10.6 L9.4,12.2 L9.4,37 C6.9,37.2 5,39.3 5,41.8 C5,44.4 7.2,46.6 9.8,46.6 L10.1,46.6 C10.1,46.9 10,47.1 10,47.4 C10,50.5 12.6,53.1 15.7,53.1 C18.8,53.1 21.4,50.5 21.4,47.4 C21.4,47.1 21.4,46.8 21.3,46.5 L44.1,46.5 C44.1,46.8 44,47.1 44,47.4 C44,50.5 46.6,53.1 49.7,53.1 C52.8,53.1 55.4,50.5 55.4,47.4 C55.4,44.3 52.8,41.7 49.7,41.7 C47.6,41.7 45.8,42.8 44.8,44.5 L20.6,44.5 C19.6,42.8 17.8,41.7 15.7,41.7 C13.6,41.7 11.7,42.9 10.7,44.6 L9.8,44.6 C8.3,44.6 7,43.3 7,41.8 C7,40.3 8.3,39 9.8,39 Z M60.3,13.1 L50.7,37 L40.6,37 L11.4,37 L11.4,13.1 L60.3,13.1 Z M49.7,43.7 C51.7,43.7 53.4,45.4 53.4,47.4 C53.4,49.4 51.7,51.1 49.7,51.1 C47.7,51.1 46,49.4 46,47.4 C46,45.4 47.7,43.7 49.7,43.7 Z M15.7,43.7 C17.7,43.7 19.4,45.4 19.4,47.4 C19.4,49.4 17.7,51.1 15.7,51.1 C13.7,51.1 12,49.4 12,47.4 C12,47 12.1,46.7 12.2,46.3 C12.4,46.1 12.5,45.9 12.5,45.6 C12.5,45.6 12.5,45.6 12.5,45.6 C13.1,44.5 14.3,43.7 15.7,43.7 Z" id="Shape"></path>
            <path d="M23.3,32.4 C27.9,32.4 32.1,28.3 33.8,26.4 C35.6,28.2 40,32.4 44.3,32.4 C48.4,32.4 51.8,29 51.8,24.9 C51.8,20.8 48.4,17.4 44.3,17.4 C39.7,17.4 35.5,21.5 33.8,23.4 C32,21.6 27.6,17.4 23.3,17.4 C19.2,17.4 15.8,20.8 15.8,24.9 C15.8,29 19.2,32.4 23.3,32.4 Z M44.3,19.4 C47.3,19.4 49.8,21.9 49.8,24.9 C49.8,27.9 47.3,30.4 44.3,30.4 C40.7,30.4 36.6,26.4 35.1,24.9 C36.5,23.3 40.4,19.4 44.3,19.4 Z M23.3,19.4 C26.9,19.4 31,23.4 32.5,24.9 C31.1,26.5 27.2,30.4 23.3,30.4 C20.3,30.4 17.8,27.9 17.8,24.9 C17.8,21.9 20.3,19.4 23.3,19.4 Z" id="Shape"></path>
        </g>
    </g>
</svg>