<?xml version="1.0" encoding="UTF-8"?>
<svg width="53px" height="54px" viewBox="0 0 53 54" version="1.1" xmlns="http://www.w3.org/2000/svg" xmlns:xlink="http://www.w3.org/1999/xlink">
    <!-- Generator: Sketch 45.2 (43514) - http://www.bohemiancoding.com/sketch -->
    <title>material</title>
    <desc>Created with Sketch.</desc>
    <defs>
        <linearGradient x1="152.531603%" y1="50%" x2="-12.9363524%" y2="50%" id="linearGradient-1">
            <stop stop-color="#01ADFF" offset="0%"></stop>
            <stop stop-color="#8E43E6" offset="100%"></stop>
        </linearGradient>
    </defs>
    <g id="Page-1" stroke="none" stroke-width="1" fill="none" fill-rule="evenodd">
        <g id="material" fill-rule="nonzero" fill="url(#linearGradient-1)">
            <path d="M26.5,0.2 C11.9,0.2 0,12.1 0,26.7 C0,41.3 11.9,53.2 26.5,53.2 C41.1,53.2 53,41.3 53,26.7 C53,12.1 41.1,0.2 26.5,0.2 Z M26.5,51.2 C13,51.2 2,40.2 2,26.7 C2,13.2 13,2.2 26.5,2.2 C40,2.2 51,13.2 51,26.7 C51,40.2 40,51.2 26.5,51.2 Z" id="Shape"></path>
            <path d="M32,25.7 L27.5,25.7 L27.5,21.2 C27.5,20.6 27.1,20.2 26.5,20.2 C25.9,20.2 25.5,20.6 25.5,21.2 L25.5,25.7 L21,25.7 C20.4,25.7 20,26.1 20,26.7 C20,27.3 20.4,27.7 21,27.7 L25.5,27.7 L25.5,32.2 C25.5,32.8 25.9,33.2 26.5,33.2 C27.1,33.2 27.5,32.8 27.5,32.2 L27.5,27.7 L32,27.7 C32.6,27.7 33,27.3 33,26.7 C33,26.1 32.6,25.7 32,25.7 Z" id="Shape"></path>
        </g>
    </g>
</svg>