<?xml version="1.0" encoding="UTF-8"?>
<svg width="54px" height="54px" viewBox="0 0 54 54" version="1.1" xmlns="http://www.w3.org/2000/svg" xmlns:xlink="http://www.w3.org/1999/xlink">
    <!-- Generator: Sketch 45.2 (43514) - http://www.bohemiancoding.com/sketch -->
    <title>tourism</title>
    <desc>Created with Sketch.</desc>
    <defs>
        <linearGradient x1="152.531603%" y1="50%" x2="-12.9363524%" y2="50%" id="linearGradient-1">
            <stop stop-color="#01ADFF" offset="0%"></stop>
            <stop stop-color="#8E43E6" offset="100%"></stop>
        </linearGradient>
    </defs>
    <g id="Page-1" stroke="none" stroke-width="1" fill="none" fill-rule="evenodd">
        <g id="tourism" fill-rule="nonzero" fill="url(#linearGradient-1)">
            <path d="M18,53.3 C18,53.3 17.9,53.3 18,53.3 C17.6,53.3 17.4,53.1 17.2,52.9 L10.2,43.1 L0.4,36.1 C0.2,35.9 0,35.7 0,35.4 C0,35.1 0.1,34.8 0.3,34.6 L1.7,33.2 C1.9,33 2.3,32.9 2.6,32.9 L10.6,34.5 L22.6,22.7 L1,16.3 C0.7,16.2 0.4,15.9 0.3,15.6 C0.2,15.3 0.3,14.9 0.6,14.6 L5.5,9.7 C5.7,9.5 6,9.4 6.3,9.4 L33,12.2 L41.6,3.6 C43.1,2 46.6,0.2 49.3,0.2 C50.5,0.2 51.5,0.5 52.1,1.2 C54.6,3.7 51.6,9.8 49.7,11.7 L41,20.3 L43.8,47.1 C43.8,47.4 43.7,47.7 43.5,47.9 L38.6,52.8 C38.4,53 38,53.1 37.6,53.1 C37.3,53 37,52.8 36.9,52.4 L30.5,30.9 L18.8,42.7 L20.4,50.7 C20.5,51 20.4,51.4 20.1,51.6 L18.7,53 C18.5,53.2 18.3,53.3 18,53.3 Z M2.5,35.2 L11.4,41.6 C11.5,41.7 11.6,41.7 11.6,41.8 L18,50.7 L18.2,50.5 L16.6,42.5 C16.5,42.2 16.6,41.8 16.9,41.6 L30.3,28.2 C30.5,28 30.9,27.9 31.3,27.9 C31.6,28 31.9,28.2 32,28.6 L38.4,50.1 L41.8,46.7 L39,20 C39,19.7 39.1,19.4 39.3,19.2 L48.3,10.3 C50.2,8.4 51.8,3.8 50.7,2.6 C50.4,2.3 49.8,2.2 49.3,2.2 C47.2,2.2 44.2,3.7 43,5 L34.1,13.9 C33.9,14.1 33.6,14.2 33.3,14.2 L6.6,11.4 L3.2,14.8 L24.8,21.2 C25.1,21.3 25.4,21.6 25.5,21.9 C25.6,22.2 25.5,22.6 25.2,22.9 L11.6,36.3 C11.4,36.5 11,36.6 10.7,36.6 L2.7,35 L2.5,35.2 Z" id="Shape"></path>
        </g>
    </g>
</svg>